<?xml version="1.0" standalone="no"?><!DOCTYPE svg PUBLIC "-//W3C//DTD SVG 1.1//EN" "http://www.w3.org/Graphics/SVG/1.1/DTD/svg11.dtd"><svg t="1501319763281" class="icon" style="" viewBox="0 0 1031 1024" version="1.1" xmlns="http://www.w3.org/2000/svg" p-id="2369" xmlns:xlink="http://www.w3.org/1999/xlink" width="201.3671875" height="200"><defs><style type="text/css"></style></defs><path d="M659.450338 619.52c71.68-128 97.28-250.88 97.28-250.88l-12.8 0 0 0-110.08 0L518.650338 368.64 518.650338 281.6l281.6 0L800.250338 243.2 518.650338 243.2 518.650338 107.52l-128 0 0 135.68-256 0L134.650338 281.6l256 0 0 89.6L170.490338 371.2 170.490338 409.6l442.88 0c0 7.68 0 7.68-7.68 12.8 0 46.08-33.28 110.08-58.88 161.28-327.68-128-422.4-51.2-448-38.4-217.6 153.6-12.8 345.6 20.48 340.48 230.4 51.2 378.88-46.08 481.28-166.4 7.68 7.68 12.8 7.68 20.48 7.68 71.68 38.4 409.6 199.68 409.6 199.68s0-140.8 0-192C979.450338 729.6 792.570338 665.6 659.450338 619.52zM493.050338 678.4c-161.28 204.8-353.28 140.8-384 128-76.8-20.48-102.4-161.28-7.68-204.8 161.28-51.2 302.08 7.68 404.48 58.88C498.170338 670.72 493.050338 678.4 493.050338 678.4z" p-id="2370" fill="#ffffff"></path></svg>