<?xml version="1.0" standalone="no"?><!DOCTYPE svg PUBLIC "-//W3C//DTD SVG 1.1//EN" "http://www.w3.org/Graphics/SVG/1.1/DTD/svg11.dtd"><svg t="1510560417487" class="icon" style="" viewBox="0 0 1024 1024" version="1.1" xmlns="http://www.w3.org/2000/svg" p-id="5495" xmlns:xlink="http://www.w3.org/1999/xlink" width="32" height="32"><defs><style type="text/css"></style></defs><path d="M952.064 302.592c-1.024 11.264-1.024 21.504-1.024 32.768v24.064c0 13.824-1.024 27.136-1.024 40.96-1.536 64.512-7.168 130.048-14.336 195.584-1.024 11.264-3.072 21.504-7.168 32.768-1.024 1.536-1.024 2.56-1.536 4.096 0 1.024-1.024 1.536-1.024 2.56s0 1.024-1.024 1.536l-2.56 7.168c-19.968 58.368-51.712 113.664-95.232 164.352-11.264 11.264-21.504 21.504-31.232 32.768-3.072 4.096-7.168 7.168-11.264 11.776-4.608 4.096-9.728 8.192-13.824 11.776-2.56 2.56-5.632 5.632-8.704 8.192-16.896 14.336-35.328 29.696-53.76 42.496-11.264 8.192-21.504 15.872-33.792 23.04-9.728 6.144-18.944 12.8-28.672 19.968-3.072 2.56-7.168 4.096-9.728 6.144-28.16 16.896-57.344 35.328-88.064 48.64-2.56 1.536-6.144 2.56-8.704 4.096-7.168 3.072-12.8 6.144-19.968 6.144h-34.304c-8.192 0-15.872-4.096-23.04-8.192-2.56-1.536-5.632-2.56-7.168-4.096-71.68-37.376-136.704-80.896-192.512-128.512-33.792-29.696-60.928-56.832-83.968-84.48-30.208-39.936-60.928-82.432-80.896-131.072-1.024-2.56-2.56-5.632-2.56-8.192-7.168-18.944-15.36-38.912-16.896-58.88C75.008 531.968 73.472 464.896 71.936 399.36c0-13.824-1.024-27.136-1.024-40.96V166.912c1.024-18.432 7.168-34.304 18.432-44.544l4.096-4.096c4.096-3.072 7.168-7.168 11.776-8.704H106.752c11.776-7.168 24.064-12.8 35.84-18.432 7.168-3.072 14.336-7.168 21.504-11.264C233.728 45.568 309.504 26.112 376.064 11.776 414.976 6.144 453.376 1.536 492.8 0H500.992c78.848 0 152.576 10.24 218.624 30.208 20.992 6.144 41.472 14.336 61.44 21.504 8.704 3.072 18.432 7.168 28.16 11.264 28.672 10.24 56.832 24.064 83.968 38.4 8.192 4.096 16.896 8.192 24.064 12.8h1.536c4.096 2.56 7.168 4.608 11.776 8.704l4.096 4.096c11.264 10.24 17.408 26.112 18.432 44.544v48.128c-1.024 27.136-0.512 55.296-1.024 82.944z m-81.408 308.224c1.024-2.56 2.56-5.632 2.56-8.192 0-1.024 0-1.024 1.024-1.536 1.024-1.536 1.024-2.56 1.536-4.096 1.536-4.096 2.56-8.192 2.56-12.8 4.096-36.864 5.632-74.24 7.168-111.104 0-8.704 1.024-17.408 1.024-27.136 1.536-80.896 2.56-175.616 1.536-273.408v-4.608l-2.56-1.536c-8.704-5.632-18.432-10.24-27.136-14.336l-18.944-9.728h-1.536C762.624 112.64 695.552 85.504 623.872 75.264c-39.936-6.144-76.8-9.728-111.616-9.728-10.24 0-19.968 0-29.696 1.024-21.504 1.536-44.544 4.096-65.536 7.168l-6.144 1.024c-14.336 1.536-29.696 4.608-43.008 8.192-2.56 1.024-4.096 1.024-6.144 1.536-54.272 12.288-116.736 29.696-175.616 58.368-10.24 5.632-20.992 11.264-30.208 15.872-4.608 2.56-10.24 4.608-15.872 7.168l-4.096 1.536v5.632c-1.536 97.28 0 192.512 1.536 273.408 1.024 8.704 1.024 17.408 1.024 27.136 1.536 35.84 2.56 74.24 7.168 111.104 1.536 11.776 4.608 21.504 8.192 31.232 1.024 2.56 2.56 4.608 2.56 7.168 15.872 48.128 44.544 88.064 75.264 125.952 43.008 51.712 97.28 98.816 166.912 145.408 27.136 18.432 57.344 35.84 97.28 56.832h1.536c3.072 1.024 7.168 1.536 11.264 1.536h11.776l1.024-0.512c58.368-25.6 116.736-61.44 183.808-114.176 11.776-9.728 26.112-19.968 37.376-33.792 8.704-7.168 16.896-15.872 23.04-24.064 5.632-6.144 11.264-11.776 16.896-17.408 41.472-45.568 71.168-96.768 88.064-152.064zM238.848 355.328h66.048v266.24H238.848v-266.24z m271.36 169.472l61.44 3.072c-2.56 28.672-12.8 51.712-31.232 70.144-18.432 18.432-43.008 27.136-74.24 27.136-37.376 0-65.536-11.776-85.504-36.864-18.944-24.064-29.696-57.344-29.696-99.84 0-43.008 9.728-76.8 28.672-100.864 18.944-24.064 48.128-36.864 86.016-36.864 62.976 0 97.28 34.304 102.912 102.912l-60.928 4.096c-0.512-38.4-14.848-58.368-41.472-58.368-13.824 0-24.576 6.144-33.792 18.944-8.192 12.8-11.776 37.376-11.776 74.24 0 32.768 4.096 55.296 11.264 67.072 8.192 11.776 18.944 18.432 33.792 18.432 26.112-0.512 40.448-17.92 44.544-53.248z m100.864-169.472h87.04c26.112 0 47.104 2.56 61.44 5.632s27.136 12.8 36.864 26.112c9.728 13.824 15.36 30.208 15.36 51.2 0 18.944-4.096 35.84-11.776 48.128-8.192 12.8-18.944 21.504-33.792 27.136s-35.84 8.704-65.536 8.704h-23.04v98.304h-66.048V355.328h-0.512z m67.072 43.008v78.848h20.992c18.432 0 29.696-4.096 35.328-11.264 5.632-7.168 8.192-16.896 8.192-28.672 0-10.24-2.56-18.432-6.144-24.064-4.096-6.144-8.704-10.24-14.336-11.776-5.632-1.536-12.8-2.56-22.528-2.56-1.024 0.512-21.504-0.512-21.504-0.512z" fill="#515151" p-id="5496"></path></svg>