<?xml version="1.0" standalone="no"?><!DOCTYPE svg PUBLIC "-//W3C//DTD SVG 1.1//EN" "http://www.w3.org/Graphics/SVG/1.1/DTD/svg11.dtd"><svg t="1510559650949" class="icon" style="" viewBox="0 0 1024 1024" version="1.1" xmlns="http://www.w3.org/2000/svg" p-id="2459" xmlns:xlink="http://www.w3.org/1999/xlink" width="200" height="200"><defs><style type="text/css"></style></defs><path d="M494.528582 0l31.951713 0c-1.370207 15.335267 0.77055 17.21815 7.965415 22.958898 82.328054 65.364707 142.040017 155.663292 170.827667 267.716344-128.504746-0.682545-259.750929 1.370207-386.538567-1.029446 27.583219-99.629091 76.931137-183.757141 145.80476-245.699911 8.394181-7.535627 27.843138-19.529799 29.990035-26.981515C495.980653 11.82328 493.238193 1.459235 494.528582 0L494.528582 0 494.528582 0zM311.703673 320.66323l401.533073 0c9.253758 46.086641 18.076704 96.457866 16.022928 146.834206-2.058892 49.858548-11.82328 98.346889-20.993127 140.839679-19.35993 89.868797-42.917462 175.535899-66.905806 256.751618L385.637546 865.088734c-27.240411-78.04654-49.174979-165.258835-68.963675-254.694773-18.675338-84.385922-32.04074-196.098213-5.994528-286.649556C310.593386 322.204329 310.593386 320.833099 311.703673 320.66323L311.703673 320.66323 311.703673 320.66323zM434.557722 442.48067c-17.646915 55.945173 21.157879 108.286262 77.869508 107.856473 23.304775-0.169869 47.976688-12.505825 60.911278-26.982538 47.464011-52.686966 7.198959-144.951323-68.964698-136.816039C466.169697 390.651234 443.467649 414.380682 434.557722 442.48067L434.557722 442.48067 434.557722 442.48067zM126.917086 636.266212l0-30.928407c8.653077-83.870176 62.623269-127.905088 131.845841-147.864676 11.134595 127.392412 37.181831 239.786225 72.906473 342.592682-27.15957 38.211277-57.400315 78.30032-54.917774 142.81159C192.281793 875.283933 136.429741 778.989797 126.917086 636.266212L126.917086 636.266212 126.917086 636.266212zM767.206938 457.473129c50.376341 15.423271 88.581478 40.434921 110.858854 80.869842 23.474644 42.664705 22.788006 104.263645 11.994172 163.803693-9.594519 52.771901-28.611641 98.258884-52.941769 138.870838-24.245194 40.435944-53.287647 77.358879-88.927355 100.917434 1.799996-47.547923-15.417131-84.557838-36.922934-116.852358-5.741771-8.570189-17.388019-19.193131-17.9887-24.928762-0.859577-8.311293 9.335622-27.245528 13.018501-38.981826 28.446889-92.0116 50.376341-192.069457 59.969836-301.640991C765.837754 457.561134 766.866177 455.843002 767.206938 457.473129L767.206938 457.473129 767.206938 457.473129zM420.592662 896.018164l182.816722 0c-11.136641 22.188348-25.01165 41.547255-35.982516 63.906495-10.876722-7.111978-17.900695-18.077727-27.92398-25.958208-9.169847 29.387307-18.764366 58.510602-28.0171 87.897909-12.07706-28.528754-22.528086-58.682517-33.923624-87.897909-8.31027 14.309914-15.163351 30.069853-22.959921 44.975331C442.091302 952.389032 431.557388 924.030148 420.592662 896.018164L420.592662 896.018164 420.592662 896.018164zM420.592662 896.018164" p-id="2460" fill="#515151"></path></svg>