<?xml version="1.0" standalone="no"?><!DOCTYPE svg PUBLIC "-//W3C//DTD SVG 1.1//EN" "http://www.w3.org/Graphics/SVG/1.1/DTD/svg11.dtd"><svg t="1510557476950" class="icon" style="" viewBox="0 0 1024 1024" version="1.1" xmlns="http://www.w3.org/2000/svg" p-id="2860" xmlns:xlink="http://www.w3.org/1999/xlink" width="200" height="200"><defs><style type="text/css"></style></defs><path d="M79.071382 1023.661286c-21.716604 0-39.358403-17.679661-39.358403-39.358403L39.712979 748.155535c0-21.678742 17.641799-39.358403 39.358403-39.358403l78.715783 0c21.677719 0 39.35738 17.679661 39.35738 39.358403l0 236.147348c0 21.678742-17.679661 39.358403-39.35738 39.358403L79.071382 1023.661286z" p-id="2861" fill="#515151"></path><path d="M275.86135 1023.661286c-21.716604 0-39.35738-17.679661-39.35738-39.358403L236.50397 669.439752c0-21.677719 17.641799-39.35738 39.35738-39.35738l78.715783 0c21.677719 0 39.35738 17.679661 39.35738 39.35738l0 314.863131c0 21.678742-17.679661 39.358403-39.35738 39.358403L275.86135 1023.661286z" p-id="2862" fill="#515151"></path><path d="M472.650295 1023.661286c-21.716604 0-39.35738-17.679661-39.35738-39.358403L433.292915 551.365566c0-21.677719 17.641799-39.35738 39.35738-39.35738l78.715783 0c21.677719 0 39.35738 17.679661 39.35738 39.35738l0 432.937316c0 21.678742-17.679661 39.358403-39.35738 39.358403L472.650295 1023.661286z" p-id="2863" fill="#515151"></path><path d="M669.440264 1023.661286c-21.716604 0-39.358403-17.679661-39.358403-39.358403L630.08186 630.082372c0-21.678742 17.641799-39.358403 39.358403-39.358403l78.715783 0c21.677719 0 39.35738 17.679661 39.35738 39.358403l0 354.22051c0 21.678742-17.679661 39.358403-39.35738 39.358403L669.440264 1023.661286z" p-id="2864" fill="#515151"></path><path d="M866.230232 1023.661286c-21.716604 0-39.358403-17.679661-39.358403-39.358403l0-511.653099c0-21.677719 17.641799-39.35738 39.358403-39.35738l78.715783 0c21.677719 0 39.35738 17.680684 39.35738 39.35738l0 511.653099c0 21.678742-17.679661 39.358403-39.35738 39.358403L866.230232 1023.661286z" p-id="2865" fill="#515151"></path><path d="M117.314381 509.894036 313.950853 395.356396 511.989255 238.500952 710.123848 277.282211 903.378294 118.121258Z" p-id="2866" fill="#515151"></path><path d="M976.924333 118.42825c0 39.397289-31.958876 71.375607-71.355141 71.375607-39.358403 0-71.316256-31.978319-71.316256-71.375607 0-39.396265 31.957853-71.374584 71.316256-71.374584C944.964434 47.053666 976.924333 79.031984 976.924333 118.42825" p-id="2867" fill="#515151"></path><path d="M780.134365 275.859815c0 39.396265-31.958876 71.374584-71.355141 71.374584-39.358403 0-71.316256-31.978319-71.316256-71.374584s31.957853-71.374584 71.316256-71.374584C748.175489 204.485231 780.134365 236.46355 780.134365 275.859815" p-id="2868" fill="#515151"></path><path d="M583.34542 236.502435c0 39.396265-31.958876 71.374584-71.355141 71.374584-39.358403 0-71.317279-31.978319-71.317279-71.374584s31.958876-71.374584 71.317279-71.374584C551.385521 165.127851 583.34542 197.10617 583.34542 236.502435" p-id="2869" fill="#515151"></path><path d="M386.554428 393.934001c0 39.396265-31.958876 71.374584-71.355141 71.374584-39.358403 0-71.317279-31.978319-71.317279-71.374584s31.958876-71.374584 71.317279-71.374584C354.596576 322.559417 386.554428 354.537735 386.554428 393.934001" p-id="2870" fill="#515151"></path><path d="M189.765483 512.008186c0 39.396265-31.958876 71.374584-71.355141 71.374584-39.35738 0-71.316256-31.978319-71.316256-71.374584s31.958876-71.374584 71.316256-71.374584C157.806607 440.633602 189.765483 472.611921 189.765483 512.008186" p-id="2871" fill="#515151"></path></svg>