<?xml version="1.0" standalone="no"?><!DOCTYPE svg PUBLIC "-//W3C//DTD SVG 1.1//EN" "http://www.w3.org/Graphics/SVG/1.1/DTD/svg11.dtd"><svg t="1510557866014" class="icon" style="" viewBox="0 0 1024 1024" version="1.1" xmlns="http://www.w3.org/2000/svg" p-id="1892" xmlns:xlink="http://www.w3.org/1999/xlink" width="200" height="200"><defs><style type="text/css"></style></defs><path d="M908.241556 140.04764 908.241556 595.833337c0 27.337625-6.644327 54.509475-19.877723 81.56569-13.228279 27.058262-30.588669 53.279461-52.087309 78.70555-21.436218 25.434276-46.001707 49.469692-73.523527 72.155367-27.581172 22.688745-55.490825 42.911322-83.853803 60.667731-28.357861 17.761526-55.93801 32.55444-82.682118 44.257993-26.742061 11.768021-50.189076 19.836791-70.343091 24.201192l-9.5454 1.62501-8.766664-1.62501c-20.656459-4.364401-44.662199-12.43317-71.959915-24.201192-27.299763-11.70253-55.662741-26.496467-85.080747-44.257993-29.423123-17.756409-58.286498-37.978986-86.647429-60.667731-28.359908-22.685675-53.649897-46.721091-75.92625-72.155367-22.273283-25.426089-40.308031-51.64831-54.039777-78.70555-13.734816-27.056216-20.656459-54.228065-20.656459-81.56569L113.251344 140.04764l32.604582-4.924149 365.727589-70.479191 372.874359 70.479191L908.241556 140.04764 908.241556 140.04764 908.241556 140.04764zM511.638773 130.581034l-4.40738-0.899486-313.866431 55.014988 0 287.605324 318.27381 0L511.638773 130.581034 511.638773 130.581034 511.638773 130.581034zM828.127937 472.301859 511.638773 472.301859l0 409.348062c20.37812-4.822842 42.543955-12.21009 66.438155-22.074761 23.889083-9.912767 47.509037-21.623483 70.786183-35.121915 23.280216-13.557784 45.778626-28.573779 67.330478-45.094034 21.548782-16.529465 40.642652-34.285874 57.279564-53.223179 16.636912-18.932188 29.867238-38.598086 39.804565-59.046814 9.883091-20.447704 14.851243-41.175795 14.851243-62.23953L828.128961 472.301859 828.127937 472.301859 828.127937 472.301859zM828.127937 472.301859" p-id="1893" fill="#515151"></path></svg>